<svg xmlns="http://www.w3.org/2000/svg" xmlns:svg="http://www.w3.org/2000/svg" id="svg369" width="99.294" height="52.231" version="1.1" viewBox="0 0 26.272 13.819"><g id="layer1" transform="translate(-25.000034,-58.994802)"><g id="g74" transform="matrix(1.7572987,0,0,1.7572987,25.000034,69.419229)"><line id="line72" x1=".05" x2="14.9" y1="0" y2="0" stroke="currentColor" stroke-linecap="round" stroke-linejoin="round" stroke-width=".1"/></g><g id="g78" transform="matrix(1.7572987,0,0,1.7572987,25.000034,67.66193)"><line id="line76" x1=".05" x2="14.9" y1="0" y2="0" stroke="currentColor" stroke-linecap="round" stroke-linejoin="round" stroke-width=".1"/></g><g id="g82" transform="matrix(1.7572987,0,0,1.7572987,25.000034,65.904631)"><line id="line80" x1=".05" x2="14.9" y1="0" y2="0" stroke="currentColor" stroke-linecap="round" stroke-linejoin="round" stroke-width=".1"/></g><g id="g86" transform="matrix(1.7572987,0,0,1.7572987,25.000034,64.147332)"><line id="line84" x1=".05" x2="14.9" y1="0" y2="0" stroke="currentColor" stroke-linecap="round" stroke-linejoin="round" stroke-width=".1"/></g><g id="g90" transform="matrix(1.7572987,0,0,1.7572987,25.000034,62.390034)"><line id="line88" x1=".05" x2="14.9" y1="0" y2="0" stroke="currentColor" stroke-linecap="round" stroke-linejoin="round" stroke-width=".1"/></g><g id="g94" transform="matrix(1.7572987,0,0,1.7572987,50.937763,65.904631)"><rect id="rect92" width=".19" height="4" x="0" y="-2" fill="currentColor" ry="0"/></g><g id="g98" transform="matrix(1.7572987,0,0,1.7572987,26.405873,64.147332)" style="display:inline"><path id="path96" fill="currentColor" d="m 557,-125 c 0,28 23,51 51,51 28,0 51,-23 51,-51 0,-28 -23,-51 -51,-51 -28,0 -51,23 -51,51 z m 0,250 c 0,28 23,51 51,51 28,0 51,-23 51,-51 0,-28 -23,-51 -51,-51 -28,0 -51,23 -51,51 z M 232,263 c 172,0 293,-88 293,-251 0,-263 -263,-414 -516,-521 -3,-3 -6,-4 -9,-4 -7,0 -13,6 -13,13 0,3 1,6 4,9 202,118 412,265 412,493 0,120 -63,235 -171,235 -74,0 -129,-54 -154,-126 11,5 22,8 34,8 C 167,119 212,74 212,19 212,-39 168,-87 112,-87 52,-87 0,-40 0,19 0,152 102,263 232,263 Z" transform="scale(0.004,-0.004)"/></g></g></svg>