<?xml version="1.0" encoding="UTF-8" standalone="no"?>
<svg
   version="1.2"
   width="210.00mm"
   height="297.00mm"
   viewBox="0.0000 -0.0000 119.5016 169.0094"
   id="svg118"
   sodipodi:docname="clefs.svg"
   inkscape:version="1.2.2 (b0a8486541, 2022-12-01)"
   xmlns:inkscape="http://www.inkscape.org/namespaces/inkscape"
   xmlns:sodipodi="http://sodipodi.sourceforge.net/DTD/sodipodi-0.dtd"
   xmlns:xlink="http://www.w3.org/1999/xlink"
   xmlns="http://www.w3.org/2000/svg"
   xmlns:svg="http://www.w3.org/2000/svg">
  <defs
     id="defs122" />
  <sodipodi:namedview
     id="namedview120"
     pagecolor="#505050"
     bordercolor="#ffffff"
     borderopacity="1"
     inkscape:showpageshadow="0"
     inkscape:pageopacity="0"
     inkscape:pagecheckerboard="1"
     inkscape:deskcolor="#505050"
     inkscape:document-units="mm"
     showgrid="false"
     inkscape:zoom="1.5411756"
     inkscape:cx="260.51541"
     inkscape:cy="122.95808"
     inkscape:window-width="2048"
     inkscape:window-height="1075"
     inkscape:window-x="0"
     inkscape:window-y="0"
     inkscape:window-maximized="1"
     inkscape:current-layer="svg118" />
  <style
     type="text/css"
     id="style2"><![CDATA[
tspan { white-space: pre; }
]]></style>
  <g
     transform="translate(14.2264, 9.6213)"
     id="g6">
    <line
       stroke-linejoin="round"
       stroke-linecap="round"
       stroke-width="0.1000"
       stroke="currentColor"
       x1="0.0500"
       y1="0"
       x2="14.9000"
       y2="0"
       id="line4" />
  </g>
  <g
     transform="translate(14.2264, 8.6213)"
     id="g10">
    <line
       stroke-linejoin="round"
       stroke-linecap="round"
       stroke-width="0.1000"
       stroke="currentColor"
       x1="0.0500"
       y1="0"
       x2="14.9000"
       y2="0"
       id="line8" />
  </g>
  <g
     transform="translate(14.2264, 7.6213)"
     id="g14">
    <line
       stroke-linejoin="round"
       stroke-linecap="round"
       stroke-width="0.1000"
       stroke="currentColor"
       x1="0.0500"
       y1="0"
       x2="14.9000"
       y2="0"
       id="line12" />
  </g>
  <g
     transform="translate(14.2264, 6.6213)"
     id="g18">
    <line
       stroke-linejoin="round"
       stroke-linecap="round"
       stroke-width="0.1000"
       stroke="currentColor"
       x1="0.0500"
       y1="0"
       x2="14.9000"
       y2="0"
       id="line16" />
  </g>
  <g
     transform="translate(14.2264, 5.6213)"
     id="g22">
    <line
       stroke-linejoin="round"
       stroke-linecap="round"
       stroke-width="0.1000"
       stroke="currentColor"
       x1="0.0500"
       y1="0"
       x2="14.9000"
       y2="0"
       id="line20" />
  </g>
  <g
     transform="translate(28.9864, 7.6213)"
     id="g26">
    <rect
       x="0.0000"
       y="-2.0000"
       width="0.1900"
       height="4.0000"
       ry="0.0000"
       fill="currentColor"
       id="rect24" />
  </g>
  <g
     transform="translate(15.0264, 8.6213)"
     id="g30">
    <path
       transform="scale(0.0040, -0.0040)"
       d="M376 262c4 0 9 1 13 1c155 0 256 -128 256 -261c0 -76 -33 -154 -107 -210c-22 -17 -47 -28 -73 -36c3 -35 5 -70 5 -105c0 -19 -1 -39 -2 -58c-7 -120 -90 -228 -208 -228c-108 0 -195 88 -195 197c0 58 53 103 112 103c54 0 95 -47 95 -103c0 -52 -43 -95 -95 -95 c-11 0 -21 2 -31 6c26 -39 68 -65 117 -65c96 0 157 92 163 191c1 18 2 37 2 55c0 31 -1 61 -4 92c-29 -5 -58 -8 -89 -8c-188 0 -333 172 -333 374c0 177 131 306 248 441c-19 62 -37 126 -45 191c-6 52 -7 103 -7 155c0 115 55 224 149 292c3 2 7 3 10 3c4 0 7 0 10 -3 c71 -84 133 -245 133 -358c0 -143 -86 -255 -180 -364c21 -68 39 -138 56 -207zM461 -203c68 24 113 95 113 164c0 90 -66 179 -173 190c24 -116 46 -231 60 -354zM74 28c0 -135 129 -247 264 -247c28 0 55 2 82 6c-14 127 -37 245 -63 364c-79 -8 -124 -61 -124 -119 c0 -44 25 -91 81 -123c5 -5 7 -10 7 -15c0 -11 -10 -22 -22 -22c-3 0 -6 1 -9 2c-80 43 -117 115 -117 185c0 88 58 174 160 197c-14 58 -29 117 -46 175c-107 -121 -213 -243 -213 -403zM408 1045c-99 -48 -162 -149 -162 -259c0 -74 18 -133 36 -194 c80 97 146 198 146 324c0 55 -4 79 -20 129z"
       fill="currentColor"
       id="path28" />
  </g>
  <a
     style="color:inherit;"
     xlink:href="textedit:///home/timothy/Downloads/Spontini-Editor-1.23_alfa-linux_x86_64/examples/clefs.ly:2:0:1"
     id="a36">
    <g
       transform="translate(22.9264, 7.6213)"
       id="g34">
      <path
         transform="scale(0.0040, -0.0040)"
         d="M213 112c-50 0 -69 -43 -69 -88c0 -77 57 -136 134 -136c50 0 69 43 69 88c0 77 -57 136 -134 136zM491 0c0 -43 -34 -75 -72 -96c-53 -29 -114 -40 -174 -40s-120 11 -173 40c-38 21 -72 53 -72 96s34 75 72 96c53 29 113 40 173 40s121 -11 174 -40 c38 -21 72 -53 72 -96z"
         fill="currentColor"
         id="path32" />
    </g>
  </a>
  <g
     transform="translate(14.2264, 23.6213)"
     id="g40">
    <line
       stroke-linejoin="round"
       stroke-linecap="round"
       stroke-width="0.1000"
       stroke="currentColor"
       x1="0.0500"
       y1="0"
       x2="14.9000"
       y2="0"
       id="line38" />
  </g>
  <g
     transform="translate(14.2264, 22.6213)"
     id="g44">
    <line
       stroke-linejoin="round"
       stroke-linecap="round"
       stroke-width="0.1000"
       stroke="currentColor"
       x1="0.0500"
       y1="0"
       x2="14.9000"
       y2="0"
       id="line42" />
  </g>
  <g
     transform="translate(14.2264, 21.6213)"
     id="g48">
    <line
       stroke-linejoin="round"
       stroke-linecap="round"
       stroke-width="0.1000"
       stroke="currentColor"
       x1="0.0500"
       y1="0"
       x2="14.9000"
       y2="0"
       id="line46" />
  </g>
  <g
     transform="translate(14.2264, 20.6213)"
     id="g52">
    <line
       stroke-linejoin="round"
       stroke-linecap="round"
       stroke-width="0.1000"
       stroke="currentColor"
       x1="0.0500"
       y1="0"
       x2="14.9000"
       y2="0"
       id="line50" />
  </g>
  <g
     transform="translate(14.2264, 19.6213)"
     id="g56">
    <line
       stroke-linejoin="round"
       stroke-linecap="round"
       stroke-width="0.1000"
       stroke="currentColor"
       x1="0.0500"
       y1="0"
       x2="14.9000"
       y2="0"
       id="line54" />
  </g>
  <g
     transform="translate(28.9864, 21.6213)"
     id="g60">
    <rect
       x="0.0000"
       y="-2.0000"
       width="0.1900"
       height="4.0000"
       ry="0.0000"
       fill="currentColor"
       id="rect58" />
  </g>
  <g
     transform="translate(15.0264, 20.6213)"
     id="g64">
    <path
       transform="scale(0.0040, -0.0040)"
       d="M318 0c0 -33 7 -73 45 -73c29 0 57 31 88 31c123 0 229 -89 229 -208c0 -169 -93 -250 -265 -250c-83 0 -152 61 -152 142c0 42 34 77 76 77s76 -35 76 -77c0 -39 -49 -37 -49 -76c0 -23 24 -38 49 -38c116 0 140 90 140 222c0 106 -12 180 -104 180 c-72 0 -119 -71 -119 -149c0 -9 -7 -14 -14 -14s-13 5 -13 14c0 76 -31 147 -84 200v-471c0 -6 -4 -10 -10 -10h-21c-6 0 -10 4 -10 10v980c0 6 4 10 10 10h21c6 0 10 -4 10 -10v-471c53 53 84 124 84 200c0 9 6 14 13 14s14 -5 14 -14c0 -78 47 -149 119 -149 c92 0 104 74 104 180c0 132 -24 222 -140 222c-25 0 -49 -15 -49 -38c0 -39 49 -37 49 -76c0 -42 -34 -77 -76 -77s-76 35 -76 77c0 81 69 142 152 142c172 0 265 -81 265 -250c0 -119 -106 -208 -229 -208c-31 0 -59 31 -88 31c-38 0 -45 -40 -45 -73zM129 -500h-119 c-6 0 -10 4 -10 10v980c0 6 4 10 10 10h119c6 0 10 -4 10 -10v-980c0 -6 -4 -10 -10 -10z"
       fill="currentColor"
       id="path62" />
  </g>
  <a
     style="color:inherit;"
     xlink:href="textedit:///home/timothy/Downloads/Spontini-Editor-1.23_alfa-linux_x86_64/examples/clefs.ly:4:0:1"
     id="a70">
    <g
       transform="translate(22.9264, 21.6213)"
       id="g68">
      <path
         transform="scale(0.0040, -0.0040)"
         d="M213 112c-50 0 -69 -43 -69 -88c0 -77 57 -136 134 -136c50 0 69 43 69 88c0 77 -57 136 -134 136zM491 0c0 -43 -34 -75 -72 -96c-53 -29 -114 -40 -174 -40s-120 11 -173 40c-38 21 -72 53 -72 96s34 75 72 96c53 29 113 40 173 40s121 -11 174 -40 c38 -21 72 -53 72 -96z"
         fill="currentColor"
         id="path66" />
    </g>
  </a>
  <g
     transform="translate(14.2264, 37.6213)"
     id="g74">
    <line
       stroke-linejoin="round"
       stroke-linecap="round"
       stroke-width="0.1000"
       stroke="currentColor"
       x1="0.0500"
       y1="0"
       x2="14.9000"
       y2="0"
       id="line72" />
  </g>
  <g
     transform="translate(14.2264, 36.6213)"
     id="g78">
    <line
       stroke-linejoin="round"
       stroke-linecap="round"
       stroke-width="0.1000"
       stroke="currentColor"
       x1="0.0500"
       y1="0"
       x2="14.9000"
       y2="0"
       id="line76" />
  </g>
  <g
     transform="translate(14.2264, 35.6213)"
     id="g82">
    <line
       stroke-linejoin="round"
       stroke-linecap="round"
       stroke-width="0.1000"
       stroke="currentColor"
       x1="0.0500"
       y1="0"
       x2="14.9000"
       y2="0"
       id="line80" />
  </g>
  <g
     transform="translate(14.2264, 34.6213)"
     id="g86">
    <line
       stroke-linejoin="round"
       stroke-linecap="round"
       stroke-width="0.1000"
       stroke="currentColor"
       x1="0.0500"
       y1="0"
       x2="14.9000"
       y2="0"
       id="line84" />
  </g>
  <g
     transform="translate(14.2264, 33.6213)"
     id="g90">
    <line
       stroke-linejoin="round"
       stroke-linecap="round"
       stroke-width="0.1000"
       stroke="currentColor"
       x1="0.0500"
       y1="0"
       x2="14.9000"
       y2="0"
       id="line88" />
  </g>
  <g
     transform="translate(28.9864, 35.6213)"
     id="g94">
    <rect
       x="0.0000"
       y="-2.0000"
       width="0.1900"
       height="4.0000"
       ry="0.0000"
       fill="currentColor"
       id="rect92" />
  </g>
  <g
     transform="translate(15.0264, 34.6213)"
     id="g98">
    <path
       transform="scale(0.0040, -0.0040)"
       d="M557 -125c0 28 23 51 51 51s51 -23 51 -51s-23 -51 -51 -51s-51 23 -51 51zM557 125c0 28 23 51 51 51s51 -23 51 -51s-23 -51 -51 -51s-51 23 -51 51zM232 263c172 0 293 -88 293 -251c0 -263 -263 -414 -516 -521c-3 -3 -6 -4 -9 -4c-7 0 -13 6 -13 13c0 3 1 6 4 9 c202 118 412 265 412 493c0 120 -63 235 -171 235c-74 0 -129 -54 -154 -126c11 5 22 8 34 8c55 0 100 -45 100 -100c0 -58 -44 -106 -100 -106c-60 0 -112 47 -112 106c0 133 102 244 232 244z"
       fill="currentColor"
       id="path96" />
  </g>
  <a
     style="color:inherit;"
     xlink:href="textedit:///home/timothy/Downloads/Spontini-Editor-1.23_alfa-linux_x86_64/examples/clefs.ly:6:0:1"
     id="a104">
    <g
       transform="translate(22.9264, 35.6213)"
       id="g102">
      <path
         transform="scale(0.0040, -0.0040)"
         d="M213 112c-50 0 -69 -43 -69 -88c0 -77 57 -136 134 -136c50 0 69 43 69 88c0 77 -57 136 -134 136zM491 0c0 -43 -34 -75 -72 -96c-53 -29 -114 -40 -174 -40s-120 11 -173 40c-38 21 -72 53 -72 96s34 75 72 96c53 29 113 40 173 40s121 -11 174 -40 c38 -21 72 -53 72 -96z"
         fill="currentColor"
         id="path100" />
    </g>
  </a>
  <g
     transform="translate(30.6607, 165.0670)"
     id="g110">
    <a
       xlink:href="https://lilypond.org/"
       id="a108">
      <rect
         x="0.0000"
         y="-0.5280"
         width="58.1802"
         height="2.2001"
         fill="none"
         stroke="none"
         stroke-width="0.0"
         id="rect106" />
    </a>
  </g>
  <g
     transform="translate(30.6607, 165.0670)"
     id="g116">
    <text
       font-family="serif"
       font-size="2.2001"
       text-anchor="start"
       fill="currentColor"
       id="text114"><tspan
         id="tspan112">Music engraving by LilyPond 2.24.0—www.lilypond.org</tspan></text>
  </g>
</svg>
