<svg xmlns="http://www.w3.org/2000/svg" xmlns:svg="http://www.w3.org/2000/svg" xmlns:xlink="http://www.w3.org/1999/xlink" id="svg118" width="793.701" height="1122.52" version="1.2" viewBox="0 0 119.502 169.009"><style id="style2" type="text/css">tspan{white-space:pre}</style><g id="g6" transform="translate(14.2264, 9.6213)"><line id="line4" x1=".05" x2="14.9" y1="0" y2="0" stroke="currentColor" stroke-linecap="round" stroke-linejoin="round" stroke-width=".1"/></g><g id="g10" transform="translate(14.2264, 8.6213)"><line id="line8" x1=".05" x2="14.9" y1="0" y2="0" stroke="currentColor" stroke-linecap="round" stroke-linejoin="round" stroke-width=".1"/></g><g id="g14" transform="translate(14.2264, 7.6213)"><line id="line12" x1=".05" x2="14.9" y1="0" y2="0" stroke="currentColor" stroke-linecap="round" stroke-linejoin="round" stroke-width=".1"/></g><g id="g18" transform="translate(14.2264, 6.6213)"><line id="line16" x1=".05" x2="14.9" y1="0" y2="0" stroke="currentColor" stroke-linecap="round" stroke-linejoin="round" stroke-width=".1"/></g><g id="g22" transform="translate(14.2264, 5.6213)"><line id="line20" x1=".05" x2="14.9" y1="0" y2="0" stroke="currentColor" stroke-linecap="round" stroke-linejoin="round" stroke-width=".1"/></g><g id="g26" transform="translate(28.9864, 7.6213)"><rect id="rect24" width=".19" height="4" x="0" y="-2" fill="currentColor" ry="0"/></g><g id="g30" transform="translate(15.0264, 8.6213)"><path id="path28" fill="currentColor" d="M376 262c4 0 9 1 13 1c155 0 256 -128 256 -261c0 -76 -33 -154 -107 -210c-22 -17 -47 -28 -73 -36c3 -35 5 -70 5 -105c0 -19 -1 -39 -2 -58c-7 -120 -90 -228 -208 -228c-108 0 -195 88 -195 197c0 58 53 103 112 103c54 0 95 -47 95 -103c0 -52 -43 -95 -95 -95 c-11 0 -21 2 -31 6c26 -39 68 -65 117 -65c96 0 157 92 163 191c1 18 2 37 2 55c0 31 -1 61 -4 92c-29 -5 -58 -8 -89 -8c-188 0 -333 172 -333 374c0 177 131 306 248 441c-19 62 -37 126 -45 191c-6 52 -7 103 -7 155c0 115 55 224 149 292c3 2 7 3 10 3c4 0 7 0 10 -3 c71 -84 133 -245 133 -358c0 -143 -86 -255 -180 -364c21 -68 39 -138 56 -207zM461 -203c68 24 113 95 113 164c0 90 -66 179 -173 190c24 -116 46 -231 60 -354zM74 28c0 -135 129 -247 264 -247c28 0 55 2 82 6c-14 127 -37 245 -63 364c-79 -8 -124 -61 -124 -119 c0 -44 25 -91 81 -123c5 -5 7 -10 7 -15c0 -11 -10 -22 -22 -22c-3 0 -6 1 -9 2c-80 43 -117 115 -117 185c0 88 58 174 160 197c-14 58 -29 117 -46 175c-107 -121 -213 -243 -213 -403zM408 1045c-99 -48 -162 -149 -162 -259c0 -74 18 -133 36 -194 c80 97 146 198 146 324c0 55 -4 79 -20 129z" transform="scale(0.0040, -0.0040)"/></g><a style="color:inherit" id="a36" xlink:href="textedit:///home/timothy/Downloads/Spontini-Editor-1.23_alfa-linux_x86_64/examples/clefs.ly:2:0:1"><g id="g34" transform="translate(22.9264, 7.6213)"><path id="path32" fill="currentColor" d="M213 112c-50 0 -69 -43 -69 -88c0 -77 57 -136 134 -136c50 0 69 43 69 88c0 77 -57 136 -134 136zM491 0c0 -43 -34 -75 -72 -96c-53 -29 -114 -40 -174 -40s-120 11 -173 40c-38 21 -72 53 -72 96s34 75 72 96c53 29 113 40 173 40s121 -11 174 -40 c38 -21 72 -53 72 -96z" transform="scale(0.0040, -0.0040)"/></g></a><g id="g40" transform="translate(14.2264, 23.6213)"><line id="line38" x1=".05" x2="14.9" y1="0" y2="0" stroke="currentColor" stroke-linecap="round" stroke-linejoin="round" stroke-width=".1"/></g><g id="g44" transform="translate(14.2264, 22.6213)"><line id="line42" x1=".05" x2="14.9" y1="0" y2="0" stroke="currentColor" stroke-linecap="round" stroke-linejoin="round" stroke-width=".1"/></g><g id="g48" transform="translate(14.2264, 21.6213)"><line id="line46" x1=".05" x2="14.9" y1="0" y2="0" stroke="currentColor" stroke-linecap="round" stroke-linejoin="round" stroke-width=".1"/></g><g id="g52" transform="translate(14.2264, 20.6213)"><line id="line50" x1=".05" x2="14.9" y1="0" y2="0" stroke="currentColor" stroke-linecap="round" stroke-linejoin="round" stroke-width=".1"/></g><g id="g56" transform="translate(14.2264, 19.6213)"><line id="line54" x1=".05" x2="14.9" y1="0" y2="0" stroke="currentColor" stroke-linecap="round" stroke-linejoin="round" stroke-width=".1"/></g><g id="g60" transform="translate(28.9864, 21.6213)"><rect id="rect58" width=".19" height="4" x="0" y="-2" fill="currentColor" ry="0"/></g><g id="g64" transform="translate(15.0264, 20.6213)"><path id="path62" fill="currentColor" d="M318 0c0 -33 7 -73 45 -73c29 0 57 31 88 31c123 0 229 -89 229 -208c0 -169 -93 -250 -265 -250c-83 0 -152 61 -152 142c0 42 34 77 76 77s76 -35 76 -77c0 -39 -49 -37 -49 -76c0 -23 24 -38 49 -38c116 0 140 90 140 222c0 106 -12 180 -104 180 c-72 0 -119 -71 -119 -149c0 -9 -7 -14 -14 -14s-13 5 -13 14c0 76 -31 147 -84 200v-471c0 -6 -4 -10 -10 -10h-21c-6 0 -10 4 -10 10v980c0 6 4 10 10 10h21c6 0 10 -4 10 -10v-471c53 53 84 124 84 200c0 9 6 14 13 14s14 -5 14 -14c0 -78 47 -149 119 -149 c92 0 104 74 104 180c0 132 -24 222 -140 222c-25 0 -49 -15 -49 -38c0 -39 49 -37 49 -76c0 -42 -34 -77 -76 -77s-76 35 -76 77c0 81 69 142 152 142c172 0 265 -81 265 -250c0 -119 -106 -208 -229 -208c-31 0 -59 31 -88 31c-38 0 -45 -40 -45 -73zM129 -500h-119 c-6 0 -10 4 -10 10v980c0 6 4 10 10 10h119c6 0 10 -4 10 -10v-980c0 -6 -4 -10 -10 -10z" transform="scale(0.0040, -0.0040)"/></g><a style="color:inherit" id="a70" xlink:href="textedit:///home/timothy/Downloads/Spontini-Editor-1.23_alfa-linux_x86_64/examples/clefs.ly:4:0:1"><g id="g68" transform="translate(22.9264, 21.6213)"><path id="path66" fill="currentColor" d="M213 112c-50 0 -69 -43 -69 -88c0 -77 57 -136 134 -136c50 0 69 43 69 88c0 77 -57 136 -134 136zM491 0c0 -43 -34 -75 -72 -96c-53 -29 -114 -40 -174 -40s-120 11 -173 40c-38 21 -72 53 -72 96s34 75 72 96c53 29 113 40 173 40s121 -11 174 -40 c38 -21 72 -53 72 -96z" transform="scale(0.0040, -0.0040)"/></g></a><g id="g74" transform="translate(14.2264, 37.6213)"><line id="line72" x1=".05" x2="14.9" y1="0" y2="0" stroke="currentColor" stroke-linecap="round" stroke-linejoin="round" stroke-width=".1"/></g><g id="g78" transform="translate(14.2264, 36.6213)"><line id="line76" x1=".05" x2="14.9" y1="0" y2="0" stroke="currentColor" stroke-linecap="round" stroke-linejoin="round" stroke-width=".1"/></g><g id="g82" transform="translate(14.2264, 35.6213)"><line id="line80" x1=".05" x2="14.9" y1="0" y2="0" stroke="currentColor" stroke-linecap="round" stroke-linejoin="round" stroke-width=".1"/></g><g id="g86" transform="translate(14.2264, 34.6213)"><line id="line84" x1=".05" x2="14.9" y1="0" y2="0" stroke="currentColor" stroke-linecap="round" stroke-linejoin="round" stroke-width=".1"/></g><g id="g90" transform="translate(14.2264, 33.6213)"><line id="line88" x1=".05" x2="14.9" y1="0" y2="0" stroke="currentColor" stroke-linecap="round" stroke-linejoin="round" stroke-width=".1"/></g><g id="g94" transform="translate(28.9864, 35.6213)"><rect id="rect92" width=".19" height="4" x="0" y="-2" fill="currentColor" ry="0"/></g><g id="g98" transform="translate(15.0264, 34.6213)"><path id="path96" fill="currentColor" d="M557 -125c0 28 23 51 51 51s51 -23 51 -51s-23 -51 -51 -51s-51 23 -51 51zM557 125c0 28 23 51 51 51s51 -23 51 -51s-23 -51 -51 -51s-51 23 -51 51zM232 263c172 0 293 -88 293 -251c0 -263 -263 -414 -516 -521c-3 -3 -6 -4 -9 -4c-7 0 -13 6 -13 13c0 3 1 6 4 9 c202 118 412 265 412 493c0 120 -63 235 -171 235c-74 0 -129 -54 -154 -126c11 5 22 8 34 8c55 0 100 -45 100 -100c0 -58 -44 -106 -100 -106c-60 0 -112 47 -112 106c0 133 102 244 232 244z" transform="scale(0.0040, -0.0040)"/></g><a style="color:inherit" id="a104" xlink:href="textedit:///home/timothy/Downloads/Spontini-Editor-1.23_alfa-linux_x86_64/examples/clefs.ly:6:0:1"><g id="g102" transform="translate(22.9264, 35.6213)"><path id="path100" fill="currentColor" d="M213 112c-50 0 -69 -43 -69 -88c0 -77 57 -136 134 -136c50 0 69 43 69 88c0 77 -57 136 -134 136zM491 0c0 -43 -34 -75 -72 -96c-53 -29 -114 -40 -174 -40s-120 11 -173 40c-38 21 -72 53 -72 96s34 75 72 96c53 29 113 40 173 40s121 -11 174 -40 c38 -21 72 -53 72 -96z" transform="scale(0.0040, -0.0040)"/></g></a><g id="g110" transform="translate(30.6607, 165.0670)"><a id="a108" xlink:href="https://lilypond.org/"><rect id="rect106" width="58.18" height="2.2" x="0" y="-.528" fill="none" stroke="none" stroke-width="0"/></a></g><g id="g116" transform="translate(30.6607, 165.0670)"><text id="text114" fill="currentColor" font-family="serif" font-size="2.2" text-anchor="start"><tspan id="tspan112">Music engraving by LilyPond 2.24.0—www.lilypond.org</tspan></text></g></svg>