<svg xmlns="http://www.w3.org/2000/svg" xmlns:xlink="http://www.w3.org/1999/xlink" width="793.701" height="1122.52" version="1.2" viewBox="0 0 119.502 169.009"><style type="text/css">tspan{white-space:pre}</style><g transform="translate(14.2264, 9.6213)"><line x1=".05" x2="14.9" y1="0" y2="0" stroke="currentColor" stroke-linecap="round" stroke-linejoin="round" stroke-width=".1"/></g><g transform="translate(14.2264, 8.6213)"><line x1=".05" x2="14.9" y1="0" y2="0" stroke="currentColor" stroke-linecap="round" stroke-linejoin="round" stroke-width=".1"/></g><g transform="translate(14.2264, 7.6213)"><line x1=".05" x2="14.9" y1="0" y2="0" stroke="currentColor" stroke-linecap="round" stroke-linejoin="round" stroke-width=".1"/></g><g transform="translate(14.2264, 6.6213)"><line x1=".05" x2="14.9" y1="0" y2="0" stroke="currentColor" stroke-linecap="round" stroke-linejoin="round" stroke-width=".1"/></g><g transform="translate(14.2264, 5.6213)"><line x1=".05" x2="14.9" y1="0" y2="0" stroke="currentColor" stroke-linecap="round" stroke-linejoin="round" stroke-width=".1"/></g><g transform="translate(28.9864, 7.6213)"><rect width=".19" height="4" x="0" y="-2" fill="currentColor" ry="0"/></g><g><path fill="currentColor" d="M376 262c4 0 9 1 13 1c155 0 256 -128 256 -261c0 -76 -33 -154 -107 -210c-22 -17 -47 -28 -73 -36c3 -35 5 -70 5 -105c0 -19 -1 -39 -2 -58c-7 -120 -90 -228 -208 -228c-108 0 -195 88 -195 197c0 58 53 103 112 103c54 0 95 -47 95 -103c0 -52 -43 -95 -95 -95 c-11 0 -21 2 -31 6c26 -39 68 -65 117 -65c96 0 157 92 163 191c1 18 2 37 2 55c0 31 -1 61 -4 92c-29 -5 -58 -8 -89 -8c-188 0 -333 172 -333 374c0 177 131 306 248 441c-19 62 -37 126 -45 191c-6 52 -7 103 -7 155c0 115 55 224 149 292c3 2 7 3 10 3c4 0 7 0 10 -3 c71 -84 133 -245 133 -358c0 -143 -86 -255 -180 -364c21 -68 39 -138 56 -207zM461 -203c68 24 113 95 113 164c0 90 -66 179 -173 190c24 -116 46 -231 60 -354zM74 28c0 -135 129 -247 264 -247c28 0 55 2 82 6c-14 127 -37 245 -63 364c-79 -8 -124 -61 -124 -119 c0 -44 25 -91 81 -123c5 -5 7 -10 7 -15c0 -11 -10 -22 -22 -22c-3 0 -6 1 -9 2c-80 43 -117 115 -117 185c0 88 58 174 160 197c-14 58 -29 117 -46 175c-107 -121 -213 -243 -213 -403zM408 1045c-99 -48 -162 -149 -162 -259c0 -74 18 -133 36 -194 c80 97 146 198 146 324c0 55 -4 79 -20 129z" transform="translate(15.0264, 8.6213) scale(0.0040, -0.0040)"/></g><a style="color:inherit" xlink:href="textedit:///home/timothy/Downloads/Spontini-Editor-1.23_alfa-linux_x86_64/examples/clefs.ly:2:0:1"><g><path fill="currentColor" d="M213 112c-50 0 -69 -43 -69 -88c0 -77 57 -136 134 -136c50 0 69 43 69 88c0 77 -57 136 -134 136zM491 0c0 -43 -34 -75 -72 -96c-53 -29 -114 -40 -174 -40s-120 11 -173 40c-38 21 -72 53 -72 96s34 75 72 96c53 29 113 40 173 40s121 -11 174 -40 c38 -21 72 -53 72 -96z" transform="translate(22.9264, 7.6213) scale(0.0040, -0.0040)"/></g></a><g transform="translate(14.2264, 23.6213)"><line x1=".05" x2="14.9" y1="0" y2="0" stroke="currentColor" stroke-linecap="round" stroke-linejoin="round" stroke-width=".1"/></g><g transform="translate(14.2264, 22.6213)"><line x1=".05" x2="14.9" y1="0" y2="0" stroke="currentColor" stroke-linecap="round" stroke-linejoin="round" stroke-width=".1"/></g><g transform="translate(14.2264, 21.6213)"><line x1=".05" x2="14.9" y1="0" y2="0" stroke="currentColor" stroke-linecap="round" stroke-linejoin="round" stroke-width=".1"/></g><g transform="translate(14.2264, 20.6213)"><line x1=".05" x2="14.9" y1="0" y2="0" stroke="currentColor" stroke-linecap="round" stroke-linejoin="round" stroke-width=".1"/></g><g transform="translate(14.2264, 19.6213)"><line x1=".05" x2="14.9" y1="0" y2="0" stroke="currentColor" stroke-linecap="round" stroke-linejoin="round" stroke-width=".1"/></g><g transform="translate(28.9864, 21.6213)"><rect width=".19" height="4" x="0" y="-2" fill="currentColor" ry="0"/></g><g><path fill="currentColor" d="M318 0c0 -33 7 -73 45 -73c29 0 57 31 88 31c123 0 229 -89 229 -208c0 -169 -93 -250 -265 -250c-83 0 -152 61 -152 142c0 42 34 77 76 77s76 -35 76 -77c0 -39 -49 -37 -49 -76c0 -23 24 -38 49 -38c116 0 140 90 140 222c0 106 -12 180 -104 180 c-72 0 -119 -71 -119 -149c0 -9 -7 -14 -14 -14s-13 5 -13 14c0 76 -31 147 -84 200v-471c0 -6 -4 -10 -10 -10h-21c-6 0 -10 4 -10 10v980c0 6 4 10 10 10h21c6 0 10 -4 10 -10v-471c53 53 84 124 84 200c0 9 6 14 13 14s14 -5 14 -14c0 -78 47 -149 119 -149 c92 0 104 74 104 180c0 132 -24 222 -140 222c-25 0 -49 -15 -49 -38c0 -39 49 -37 49 -76c0 -42 -34 -77 -76 -77s-76 35 -76 77c0 81 69 142 152 142c172 0 265 -81 265 -250c0 -119 -106 -208 -229 -208c-31 0 -59 31 -88 31c-38 0 -45 -40 -45 -73zM129 -500h-119 c-6 0 -10 4 -10 10v980c0 6 4 10 10 10h119c6 0 10 -4 10 -10v-980c0 -6 -4 -10 -10 -10z" transform="translate(15.0264, 20.6213) scale(0.0040, -0.0040)"/></g><a style="color:inherit" xlink:href="textedit:///home/timothy/Downloads/Spontini-Editor-1.23_alfa-linux_x86_64/examples/clefs.ly:4:0:1"><g><path fill="currentColor" d="M213 112c-50 0 -69 -43 -69 -88c0 -77 57 -136 134 -136c50 0 69 43 69 88c0 77 -57 136 -134 136zM491 0c0 -43 -34 -75 -72 -96c-53 -29 -114 -40 -174 -40s-120 11 -173 40c-38 21 -72 53 -72 96s34 75 72 96c53 29 113 40 173 40s121 -11 174 -40 c38 -21 72 -53 72 -96z" transform="translate(22.9264, 21.6213) scale(0.0040, -0.0040)"/></g></a><g transform="translate(14.2264, 37.6213)"><line x1=".05" x2="14.9" y1="0" y2="0" stroke="currentColor" stroke-linecap="round" stroke-linejoin="round" stroke-width=".1"/></g><g transform="translate(14.2264, 36.6213)"><line x1=".05" x2="14.9" y1="0" y2="0" stroke="currentColor" stroke-linecap="round" stroke-linejoin="round" stroke-width=".1"/></g><g transform="translate(14.2264, 35.6213)"><line x1=".05" x2="14.9" y1="0" y2="0" stroke="currentColor" stroke-linecap="round" stroke-linejoin="round" stroke-width=".1"/></g><g transform="translate(14.2264, 34.6213)"><line x1=".05" x2="14.9" y1="0" y2="0" stroke="currentColor" stroke-linecap="round" stroke-linejoin="round" stroke-width=".1"/></g><g transform="translate(14.2264, 33.6213)"><line x1=".05" x2="14.9" y1="0" y2="0" stroke="currentColor" stroke-linecap="round" stroke-linejoin="round" stroke-width=".1"/></g><g transform="translate(28.9864, 35.6213)"><rect width=".19" height="4" x="0" y="-2" fill="currentColor" ry="0"/></g><g><path fill="currentColor" d="M557 -125c0 28 23 51 51 51s51 -23 51 -51s-23 -51 -51 -51s-51 23 -51 51zM557 125c0 28 23 51 51 51s51 -23 51 -51s-23 -51 -51 -51s-51 23 -51 51zM232 263c172 0 293 -88 293 -251c0 -263 -263 -414 -516 -521c-3 -3 -6 -4 -9 -4c-7 0 -13 6 -13 13c0 3 1 6 4 9 c202 118 412 265 412 493c0 120 -63 235 -171 235c-74 0 -129 -54 -154 -126c11 5 22 8 34 8c55 0 100 -45 100 -100c0 -58 -44 -106 -100 -106c-60 0 -112 47 -112 106c0 133 102 244 232 244z" transform="translate(15.0264, 34.6213) scale(0.0040, -0.0040)"/></g><a style="color:inherit" xlink:href="textedit:///home/timothy/Downloads/Spontini-Editor-1.23_alfa-linux_x86_64/examples/clefs.ly:6:0:1"><g><path fill="currentColor" d="M213 112c-50 0 -69 -43 -69 -88c0 -77 57 -136 134 -136c50 0 69 43 69 88c0 77 -57 136 -134 136zM491 0c0 -43 -34 -75 -72 -96c-53 -29 -114 -40 -174 -40s-120 11 -173 40c-38 21 -72 53 -72 96s34 75 72 96c53 29 113 40 173 40s121 -11 174 -40 c38 -21 72 -53 72 -96z" transform="translate(22.9264, 35.6213) scale(0.0040, -0.0040)"/></g></a><g transform="translate(14.2264, 51.6213)"><line x1=".05" x2="15.65" y1="0" y2="0" stroke="currentColor" stroke-linecap="round" stroke-linejoin="round" stroke-width=".1"/></g><g transform="translate(14.2264, 50.6213)"><line x1=".05" x2="15.65" y1="0" y2="0" stroke="currentColor" stroke-linecap="round" stroke-linejoin="round" stroke-width=".1"/></g><g transform="translate(14.2264, 49.6213)"><line x1=".05" x2="15.65" y1="0" y2="0" stroke="currentColor" stroke-linecap="round" stroke-linejoin="round" stroke-width=".1"/></g><g transform="translate(14.2264, 48.6213)"><line x1=".05" x2="15.65" y1="0" y2="0" stroke="currentColor" stroke-linecap="round" stroke-linejoin="round" stroke-width=".1"/></g><g transform="translate(14.2264, 47.6213)"><line x1=".05" x2="15.65" y1="0" y2="0" stroke="currentColor" stroke-linecap="round" stroke-linejoin="round" stroke-width=".1"/></g><g transform="translate(29.7364, 49.6213)"><rect width=".19" height="4" x="0" y="-2" fill="currentColor" ry="0"/></g><a style="color:inherit" xlink:href="textedit:///home/timothy/Downloads/Spontini-Editor-1.23_alfa-linux_x86_64/examples/clefs.ly:9:0:1"><g><path fill="currentColor" d="M213 112c-50 0 -69 -43 -69 -88c0 -77 57 -136 134 -136c50 0 69 43 69 88c0 77 -57 136 -134 136zM491 0c0 -43 -34 -75 -72 -96c-53 -29 -114 -40 -174 -40s-120 11 -173 40c-38 21 -72 53 -72 96s34 75 72 96c53 29 113 40 173 40s121 -11 174 -40 c38 -21 72 -53 72 -96z" transform="translate(23.6764, 49.6213) scale(0.0040, -0.0040)"/></g></a><g><path fill="currentColor" d="M318 0c0 -33 7 -73 45 -73c29 0 57 31 88 31c123 0 229 -89 229 -208c0 -169 -93 -250 -265 -250c-83 0 -152 61 -152 142c0 42 34 77 76 77s76 -35 76 -77c0 -39 -49 -37 -49 -76c0 -23 24 -38 49 -38c116 0 140 90 140 222c0 106 -12 180 -104 180 c-72 0 -119 -71 -119 -149c0 -9 -7 -14 -14 -14s-13 5 -13 14c0 76 -31 147 -84 200v-471c0 -6 -4 -10 -10 -10h-21c-6 0 -10 4 -10 10v980c0 6 4 10 10 10h21c6 0 10 -4 10 -10v-471c53 53 84 124 84 200c0 9 6 14 13 14s14 -5 14 -14c0 -78 47 -149 119 -149 c92 0 104 74 104 180c0 132 -24 222 -140 222c-25 0 -49 -15 -49 -38c0 -39 49 -37 49 -76c0 -42 -34 -77 -76 -77s-76 35 -76 77c0 81 69 142 152 142c172 0 265 -81 265 -250c0 -119 -106 -208 -229 -208c-31 0 -59 31 -88 31c-38 0 -45 -40 -45 -73zM129 -500h-119 c-6 0 -10 4 -10 10v980c0 6 4 10 10 10h119c6 0 10 -4 10 -10v-980c0 -6 -4 -10 -10 -10z" transform="translate(15.0264, 48.6213) scale(0.0040, -0.0040)"/></g><g><path fill="currentColor" d="M0 119c0 8 5 15 13 18l46 17v158c0 10 8 19 18 19s19 -9 19 -19v-145l83 31v158c0 10 9 19 19 19s18 -9 18 -19v-145l32 12c2 1 5 1 7 1c11 0 20 -9 20 -20v-60c0 -8 -5 -16 -13 -19l-46 -16v-160l32 11c2 1 5 1 7 1c11 0 20 -9 20 -20v-60c0 -8 -5 -15 -13 -18l-46 -17 v-158c0 -10 -8 -19 -18 -19s-19 9 -19 19v145l-83 -31v-158c0 -10 -9 -19 -19 -19s-18 9 -18 19v145l-32 -12c-2 -1 -5 -1 -7 -1c-11 0 -20 9 -20 20v60c0 8 5 16 13 19l46 16v160l-32 -11c-2 -1 -5 -1 -7 -1c-11 0 -20 9 -20 20v60zM179 95l-83 -30v-160l83 30v160z" transform="translate(22.2264, 49.6213) scale(0.0040, -0.0040)"/></g><g transform="translate(14.2264, 65.6213)"><line x1=".05" x2="15.47" y1="0" y2="0" stroke="currentColor" stroke-linecap="round" stroke-linejoin="round" stroke-width=".1"/></g><g transform="translate(14.2264, 64.6213)"><line x1=".05" x2="15.47" y1="0" y2="0" stroke="currentColor" stroke-linecap="round" stroke-linejoin="round" stroke-width=".1"/></g><g transform="translate(14.2264, 63.6213)"><line x1=".05" x2="15.47" y1="0" y2="0" stroke="currentColor" stroke-linecap="round" stroke-linejoin="round" stroke-width=".1"/></g><g transform="translate(14.2264, 62.6213)"><line x1=".05" x2="15.47" y1="0" y2="0" stroke="currentColor" stroke-linecap="round" stroke-linejoin="round" stroke-width=".1"/></g><g transform="translate(14.2264, 61.6213)"><line x1=".05" x2="15.47" y1="0" y2="0" stroke="currentColor" stroke-linecap="round" stroke-linejoin="round" stroke-width=".1"/></g><g transform="translate(29.5564, 63.6213)"><rect width=".19" height="4" x="0" y="-2" fill="currentColor" ry="0"/></g><a style="color:inherit" xlink:href="textedit:///home/timothy/Downloads/Spontini-Editor-1.23_alfa-linux_x86_64/examples/clefs.ly:11:0:1"><g><path fill="currentColor" d="M213 112c-50 0 -69 -43 -69 -88c0 -77 57 -136 134 -136c50 0 69 43 69 88c0 77 -57 136 -134 136zM491 0c0 -43 -34 -75 -72 -96c-53 -29 -114 -40 -174 -40s-120 11 -173 40c-38 21 -72 53 -72 96s34 75 72 96c53 29 113 40 173 40s121 -11 174 -40 c38 -21 72 -53 72 -96z" transform="translate(23.4964, 63.6213) scale(0.0040, -0.0040)"/></g></a><g><path fill="currentColor" d="M557 -125c0 28 23 51 51 51s51 -23 51 -51s-23 -51 -51 -51s-51 23 -51 51zM557 125c0 28 23 51 51 51s51 -23 51 -51s-23 -51 -51 -51s-51 23 -51 51zM232 263c172 0 293 -88 293 -251c0 -263 -263 -414 -516 -521c-3 -3 -6 -4 -9 -4c-7 0 -13 6 -13 13c0 3 1 6 4 9 c202 118 412 265 412 493c0 120 -63 235 -171 235c-74 0 -129 -54 -154 -126c11 5 22 8 34 8c55 0 100 -45 100 -100c0 -58 -44 -106 -100 -106c-60 0 -112 47 -112 106c0 133 102 244 232 244z" transform="translate(15.0264, 62.6213) scale(0.0040, -0.0040)"/></g><g><path fill="currentColor" d="M27 41l-1 -66v-11c0 -22 1 -44 4 -66c45 38 93 80 93 139c0 33 -14 67 -43 67c-31 0 -52 -30 -53 -63zM-15 -138l-12 595c8 5 18 8 27 8s19 -3 27 -8l-7 -345c25 21 58 34 91 34c52 0 89 -48 89 -102c0 -80 -86 -117 -147 -169c-15 -13 -24 -38 -45 -38 c-13 0 -23 11 -23 25z" transform="translate(22.3464, 63.6213) scale(0.0040, -0.0040)"/></g><g transform="translate(30.6607, 165.0670)"><a xlink:href="https://lilypond.org/"><rect width="58.18" height="2.2" x="0" y="-.528" fill="none" stroke="none" stroke-width="0"/></a></g><g><text fill="currentColor" font-family="serif" font-size="2.2" text-anchor="start" transform="translate(30.6607, 165.0670)"><tspan>Music engraving by LilyPond 2.24.0—www.lilypond.org</tspan></text></g></svg>