<svg xmlns="http://www.w3.org/2000/svg" xmlns:svg="http://www.w3.org/2000/svg" id="svg1947" width="99.294" height="52.231" version="1.1" viewBox="0 0 26.272 13.819"><g id="layer1" transform="translate(-25.000034,-108.19917)"><g id="g979" transform="matrix(1.7572987,0,0,1.7572987,38.267648,115.10893)"><path id="path977" fill="currentColor" d="m 27,41 -1,-66 v -11 c 0,-22 1,-44 4,-66 45,38 93,80 93,139 0,33 -14,67 -43,67 C 49,104 28,74 27,41 Z m -42,-179 -12,595 c 8,5 18,8 27,8 9,0 19,-3 27,-8 L 20,112 c 25,21 58,34 91,34 52,0 89,-48 89,-102 0,-80 -86,-117 -147,-169 -15,-13 -24,-38 -45,-38 -13,0 -23,11 -23,25 z" transform="scale(0.004,-0.004)"/></g></g></svg>