<?xml version="1.0" encoding="UTF-8" standalone="no"?>
<!-- Created with Inkscape (http://www.inkscape.org/) -->

<svg
   width="99.293999"
   height="52.230999"
   viewBox="0 0 26.271537 13.819452"
   version="1.1"
   id="svg620"
   sodipodi:docname="note.svg"
   inkscape:version="1.2.2 (b0a8486541, 2022-12-01)"
   inkscape:export-filename="note.png"
   inkscape:export-xdpi="573.45001"
   inkscape:export-ydpi="573.45001"
   xmlns:inkscape="http://www.inkscape.org/namespaces/inkscape"
   xmlns:sodipodi="http://sodipodi.sourceforge.net/DTD/sodipodi-0.dtd"
   xmlns:xlink="http://www.w3.org/1999/xlink"
   xmlns="http://www.w3.org/2000/svg"
   xmlns:svg="http://www.w3.org/2000/svg">
  <sodipodi:namedview
     id="namedview622"
     pagecolor="#505050"
     bordercolor="#ffffff"
     borderopacity="1"
     inkscape:showpageshadow="0"
     inkscape:pageopacity="0"
     inkscape:pagecheckerboard="1"
     inkscape:deskcolor="#505050"
     inkscape:document-units="px"
     showgrid="false"
     inkscape:zoom="6.1647026"
     inkscape:cx="23.439898"
     inkscape:cy="21.493332"
     inkscape:window-width="2048"
     inkscape:window-height="1075"
     inkscape:window-x="0"
     inkscape:window-y="0"
     inkscape:window-maximized="1"
     inkscape:current-layer="layer1" />
  <defs
     id="defs617" />
  <g
     inkscape:label="Layer 1"
     inkscape:groupmode="layer"
     id="layer1"
     transform="translate(-182.91852,-159.41111)">
    <a
       style="color:inherit;display:inline"
       xlink:href="textedit:///home/timothy/Downloads/Spontini-Editor-1.23_alfa-linux_x86_64/examples/clefs.ly:2:0:1"
       id="a36"
       transform="matrix(1.7572987,0,0,1.7572987,157.91849,152.92788)">
      <g
         transform="translate(22.9264,7.6213)"
         id="g34">
        <path
           transform="scale(0.004,-0.004)"
           d="m 213,112 c -50,0 -69,-43 -69,-88 0,-77 57,-136 134,-136 50,0 69,43 69,88 0,77 -57,136 -134,136 z M 491,0 c 0,-43 -34,-75 -72,-96 -53,-29 -114,-40 -174,-40 -60,0 -120,11 -173,40 -38,21 -72,53 -72,96 0,43 34,75 72,96 53,29 113,40 173,40 60,0 121,-11 174,-40 38,-21 72,-53 72,-96 z"
           fill="currentColor"
           id="path32" />
      </g>
    </a>
  </g>
</svg>
