<svg xmlns="http://www.w3.org/2000/svg" xmlns:svg="http://www.w3.org/2000/svg" xmlns:xlink="http://www.w3.org/1999/xlink" id="svg620" width="99.294" height="52.231" version="1.1" viewBox="0 0 26.272 13.819"><g id="layer1" transform="translate(-182.91852,-159.41111)"><a style="color:inherit;display:inline" id="a36" transform="matrix(1.7572987,0,0,1.7572987,157.91849,152.92788)" xlink:href="textedit:///home/timothy/Downloads/Spontini-Editor-1.23_alfa-linux_x86_64/examples/clefs.ly:2:0:1"><g id="g34" transform="translate(22.9264,7.6213)"><path id="path32" fill="currentColor" d="m 213,112 c -50,0 -69,-43 -69,-88 0,-77 57,-136 134,-136 50,0 69,43 69,88 0,77 -57,136 -134,136 z M 491,0 c 0,-43 -34,-75 -72,-96 -53,-29 -114,-40 -174,-40 -60,0 -120,11 -173,40 -38,21 -72,53 -72,96 0,43 34,75 72,96 53,29 113,40 173,40 60,0 121,-11 174,-40 38,-21 72,-53 72,-96 z" transform="scale(0.004,-0.004)"/></g></a></g></svg>