<svg xmlns="http://www.w3.org/2000/svg" xmlns:svg="http://www.w3.org/2000/svg" id="svg1563" width="99.294" height="52.231" version="1.1" viewBox="0 0 26.272 13.819"><g id="layer1" transform="translate(-110.81448,-172.34208)"><g id="g40" transform="matrix(1.7572987,0,0,1.7572987,110.81448,182.76644)"><line id="line38" x1=".05" x2="14.9" y1="0" y2="0" stroke="currentColor" stroke-linecap="round" stroke-linejoin="round" stroke-width=".1"/></g><g id="g44" transform="matrix(1.7572987,0,0,1.7572987,110.81448,181.00914)"><line id="line42" x1=".05" x2="14.9" y1="0" y2="0" stroke="currentColor" stroke-linecap="round" stroke-linejoin="round" stroke-width=".1"/></g><g id="g48" transform="matrix(1.7572987,0,0,1.7572987,110.81448,179.25184)"><line id="line46" x1=".05" x2="14.9" y1="0" y2="0" stroke="currentColor" stroke-linecap="round" stroke-linejoin="round" stroke-width=".1"/></g><g id="g52" transform="matrix(1.7572987,0,0,1.7572987,110.81448,177.49454)"><line id="line50" x1=".05" x2="14.9" y1="0" y2="0" stroke="currentColor" stroke-linecap="round" stroke-linejoin="round" stroke-width=".1"/></g><g id="g56" transform="matrix(1.7572987,0,0,1.7572987,110.81448,175.73724)"><line id="line54" x1=".05" x2="14.9" y1="0" y2="0" stroke="currentColor" stroke-linecap="round" stroke-linejoin="round" stroke-width=".1"/></g><g id="g60" transform="matrix(1.7572987,0,0,1.7572987,136.75221,179.25184)"><rect id="rect58" width=".19" height="4" x="0" y="-2" fill="currentColor" ry="0"/></g><g id="g64" transform="matrix(1.7572987,0,0,1.7572987,112.22032,177.49445)" style="display:inline"><path id="path62" fill="currentColor" d="m 318,0 c 0,-33 7,-73 45,-73 29,0 57,31 88,31 123,0 229,-89 229,-208 0,-169 -93,-250 -265,-250 -83,0 -152,61 -152,142 0,42 34,77 76,77 42,0 76,-35 76,-77 0,-39 -49,-37 -49,-76 0,-23 24,-38 49,-38 116,0 140,90 140,222 0,106 -12,180 -104,180 -72,0 -119,-71 -119,-149 0,-9 -7,-14 -14,-14 -7,0 -13,5 -13,14 0,76 -31,147 -84,200 v -471 c 0,-6 -4,-10 -10,-10 h -21 c -6,0 -10,4 -10,10 v 980 c 0,6 4,10 10,10 h 21 c 6,0 10,-4 10,-10 V 19 c 53,53 84,124 84,200 0,9 6,14 13,14 7,0 14,-5 14,-14 0,-78 47,-149 119,-149 92,0 104,74 104,180 0,132 -24,222 -140,222 -25,0 -49,-15 -49,-38 0,-39 49,-37 49,-76 0,-42 -34,-77 -76,-77 -42,0 -76,35 -76,77 0,81 69,142 152,142 172,0 265,-81 265,-250 C 680,131 574,42 451,42 420,42 392,73 363,73 325,73 318,33 318,0 Z M 129,-500 H 10 c -6,0 -10,4 -10,10 v 980 c 0,6 4,10 10,10 h 119 c 6,0 10,-4 10,-10 v -980 c 0,-6 -4,-10 -10,-10 z" transform="scale(0.004,-0.004)"/></g></g></svg>