<?xml version="1.0" encoding="UTF-8" standalone="no"?>
<!-- Created with Inkscape (http://www.inkscape.org/) -->

<svg
   width="99.293999"
   height="52.230999"
   viewBox="0 0 26.271537 13.819452"
   version="1.1"
   id="svg1563"
   inkscape:version="1.2.2 (b0a8486541, 2022-12-01)"
   sodipodi:docname="tenor.svg"
   inkscape:export-filename="tenor.png"
   inkscape:export-xdpi="573.45001"
   inkscape:export-ydpi="573.45001"
   xmlns:inkscape="http://www.inkscape.org/namespaces/inkscape"
   xmlns:sodipodi="http://sodipodi.sourceforge.net/DTD/sodipodi-0.dtd"
   xmlns="http://www.w3.org/2000/svg"
   xmlns:svg="http://www.w3.org/2000/svg">
  <sodipodi:namedview
     id="namedview1565"
     pagecolor="#505050"
     bordercolor="#ffffff"
     borderopacity="1"
     inkscape:showpageshadow="0"
     inkscape:pageopacity="0"
     inkscape:pagecheckerboard="1"
     inkscape:deskcolor="#505050"
     inkscape:document-units="px"
     showgrid="false"
     inkscape:zoom="17.436412"
     inkscape:cx="12.129789"
     inkscape:cy="26.524952"
     inkscape:window-width="2048"
     inkscape:window-height="1075"
     inkscape:window-x="0"
     inkscape:window-y="0"
     inkscape:window-maximized="1"
     inkscape:current-layer="layer1" />
  <defs
     id="defs1560" />
  <g
     inkscape:label="Layer 1"
     inkscape:groupmode="layer"
     id="layer1"
     transform="translate(-110.81448,-172.34208)">
    <g
       transform="matrix(1.7572987,0,0,1.7572987,110.81448,182.76644)"
       id="g40">
      <line
         stroke-linejoin="round"
         stroke-linecap="round"
         stroke-width="0.1"
         stroke="currentColor"
         x1="0.050000001"
         y1="0"
         x2="14.9"
         y2="0"
         id="line38" />
    </g>
    <g
       transform="matrix(1.7572987,0,0,1.7572987,110.81448,181.00914)"
       id="g44">
      <line
         stroke-linejoin="round"
         stroke-linecap="round"
         stroke-width="0.1"
         stroke="currentColor"
         x1="0.050000001"
         y1="0"
         x2="14.9"
         y2="0"
         id="line42" />
    </g>
    <g
       transform="matrix(1.7572987,0,0,1.7572987,110.81448,179.25184)"
       id="g48">
      <line
         stroke-linejoin="round"
         stroke-linecap="round"
         stroke-width="0.1"
         stroke="currentColor"
         x1="0.050000001"
         y1="0"
         x2="14.9"
         y2="0"
         id="line46" />
    </g>
    <g
       transform="matrix(1.7572987,0,0,1.7572987,110.81448,177.49454)"
       id="g52">
      <line
         stroke-linejoin="round"
         stroke-linecap="round"
         stroke-width="0.1"
         stroke="currentColor"
         x1="0.050000001"
         y1="0"
         x2="14.9"
         y2="0"
         id="line50" />
    </g>
    <g
       transform="matrix(1.7572987,0,0,1.7572987,110.81448,175.73724)"
       id="g56">
      <line
         stroke-linejoin="round"
         stroke-linecap="round"
         stroke-width="0.1"
         stroke="currentColor"
         x1="0.050000001"
         y1="0"
         x2="14.9"
         y2="0"
         id="line54" />
    </g>
    <g
       transform="matrix(1.7572987,0,0,1.7572987,136.75221,179.25184)"
       id="g60">
      <rect
         x="0"
         y="-2"
         width="0.19"
         height="4"
         ry="0.0000"
         fill="currentColor"
         id="rect58" />
    </g>
    <g
       transform="matrix(1.7572987,0,0,1.7572987,112.22032,177.49445)"
       id="g64"
       style="display:inline">
      <path
         transform="scale(0.004,-0.004)"
         d="m 318,0 c 0,-33 7,-73 45,-73 29,0 57,31 88,31 123,0 229,-89 229,-208 0,-169 -93,-250 -265,-250 -83,0 -152,61 -152,142 0,42 34,77 76,77 42,0 76,-35 76,-77 0,-39 -49,-37 -49,-76 0,-23 24,-38 49,-38 116,0 140,90 140,222 0,106 -12,180 -104,180 -72,0 -119,-71 -119,-149 0,-9 -7,-14 -14,-14 -7,0 -13,5 -13,14 0,76 -31,147 -84,200 v -471 c 0,-6 -4,-10 -10,-10 h -21 c -6,0 -10,4 -10,10 v 980 c 0,6 4,10 10,10 h 21 c 6,0 10,-4 10,-10 V 19 c 53,53 84,124 84,200 0,9 6,14 13,14 7,0 14,-5 14,-14 0,-78 47,-149 119,-149 92,0 104,74 104,180 0,132 -24,222 -140,222 -25,0 -49,-15 -49,-38 0,-39 49,-37 49,-76 0,-42 -34,-77 -76,-77 -42,0 -76,35 -76,77 0,81 69,142 152,142 172,0 265,-81 265,-250 C 680,131 574,42 451,42 420,42 392,73 363,73 325,73 318,33 318,0 Z M 129,-500 H 10 c -6,0 -10,4 -10,10 v 980 c 0,6 4,10 10,10 h 119 c 6,0 10,-4 10,-10 v -980 c 0,-6 -4,-10 -10,-10 z"
         fill="currentColor"
         id="path62" />
    </g>
  </g>
</svg>
