<svg xmlns="http://www.w3.org/2000/svg" xmlns:svg="http://www.w3.org/2000/svg" id="svg620" width="99.294" height="52.231" version="1.1" viewBox="0 0 26.272 13.819"><g id="layer1" transform="translate(-182.91852,-159.41111)"><g id="g6" transform="matrix(1.7572987,0,0,1.7572987,182.91852,169.83538)"><line id="line4" x1=".05" x2="14.9" y1="0" y2="0" stroke="currentColor" stroke-linecap="round" stroke-linejoin="round" stroke-width=".1"/></g><g id="g10" transform="matrix(1.7572987,0,0,1.7572987,182.91852,168.07808)"><line id="line8" x1=".05" x2="14.9" y1="0" y2="0" stroke="currentColor" stroke-linecap="round" stroke-linejoin="round" stroke-width=".1"/></g><g id="g14" transform="matrix(1.7572987,0,0,1.7572987,182.91852,166.32078)"><line id="line12" x1=".05" x2="14.9" y1="0" y2="0" stroke="currentColor" stroke-linecap="round" stroke-linejoin="round" stroke-width=".1"/></g><g id="g18" transform="matrix(1.7572987,0,0,1.7572987,182.91852,164.56348)"><line id="line16" x1=".05" x2="14.9" y1="0" y2="0" stroke="currentColor" stroke-linecap="round" stroke-linejoin="round" stroke-width=".1"/></g><g id="g22" transform="matrix(1.7572987,0,0,1.7572987,182.91852,162.80618)"><line id="line20" x1=".05" x2="14.9" y1="0" y2="0" stroke="currentColor" stroke-linecap="round" stroke-linejoin="round" stroke-width=".1"/></g><g id="g26" transform="matrix(1.7572987,0,0,1.7572987,208.85625,166.32078)"><rect id="rect24" width=".19" height="4" x="0" y="-2" fill="currentColor" ry="0"/></g><g id="g30" transform="matrix(1.7572987,0,0,1.7572987,184.32436,168.07808)"><path id="path28" fill="currentColor" d="m 376,262 c 4,0 9,1 13,1 155,0 256,-128 256,-261 0,-76 -33,-154 -107,-210 -22,-17 -47,-28 -73,-36 3,-35 5,-70 5,-105 0,-19 -1,-39 -2,-58 -7,-120 -90,-228 -208,-228 -108,0 -195,88 -195,197 0,58 53,103 112,103 54,0 95,-47 95,-103 0,-52 -43,-95 -95,-95 -11,0 -21,2 -31,6 26,-39 68,-65 117,-65 96,0 157,92 163,191 1,18 2,37 2,55 0,31 -1,61 -4,92 -29,-5 -58,-8 -89,-8 -188,0 -333,172 -333,374 0,177 131,306 248,441 -19,62 -37,126 -45,191 -6,52 -7,103 -7,155 0,115 55,224 149,292 3,2 7,3 10,3 4,0 7,0 10,-3 71,-84 133,-245 133,-358 0,-143 -86,-255 -180,-364 21,-68 39,-138 56,-207 z m 85,-465 c 68,24 113,95 113,164 0,90 -66,179 -173,190 24,-116 46,-231 60,-354 z M 74,28 c 0,-135 129,-247 264,-247 28,0 55,2 82,6 C 406,-86 383,32 357,151 278,143 233,90 233,32 c 0,-44 25,-91 81,-123 5,-5 7,-10 7,-15 0,-11 -10,-22 -22,-22 -3,0 -6,1 -9,2 -80,43 -117,115 -117,185 0,88 58,174 160,197 -14,58 -29,117 -46,175 C 180,310 74,188 74,28 Z M 408,1045 C 309,997 246,896 246,786 c 0,-74 18,-133 36,-194 80,97 146,198 146,324 0,55 -4,79 -20,129 z" transform="scale(0.004,-0.004)"/></g></g></svg>