<?xml version="1.0" encoding="UTF-8" standalone="no"?>
<!-- Created with Inkscape (http://www.inkscape.org/) -->

<svg
   width="99.294296"
   height="52.230999"
   viewBox="0 0 26.271616 13.819452"
   version="1.1"
   id="svg620"
   inkscape:version="1.2.2 (b0a8486541, 2022-12-01)"
   sodipodi:docname="treble.svg"
   inkscape:export-filename="treble.png"
   inkscape:export-xdpi="573.45001"
   inkscape:export-ydpi="573.45001"
   xmlns:inkscape="http://www.inkscape.org/namespaces/inkscape"
   xmlns:sodipodi="http://sodipodi.sourceforge.net/DTD/sodipodi-0.dtd"
   xmlns="http://www.w3.org/2000/svg"
   xmlns:svg="http://www.w3.org/2000/svg">
  <sodipodi:namedview
     id="namedview622"
     pagecolor="#505050"
     bordercolor="#ffffff"
     borderopacity="1"
     inkscape:showpageshadow="0"
     inkscape:pageopacity="0"
     inkscape:pagecheckerboard="1"
     inkscape:deskcolor="#505050"
     inkscape:document-units="px"
     showgrid="false"
     inkscape:zoom="6.1647026"
     inkscape:cx="1.2166037"
     inkscape:cy="64.317782"
     inkscape:window-width="2048"
     inkscape:window-height="1075"
     inkscape:window-x="0"
     inkscape:window-y="0"
     inkscape:window-maximized="1"
     inkscape:current-layer="layer1" />
  <defs
     id="defs617" />
  <g
     inkscape:label="Layer 1"
     inkscape:groupmode="layer"
     id="layer1"
     transform="translate(-182.91852,-159.41111)">
    <g
       transform="matrix(1.7572987,0,0,1.7572987,182.91852,169.83538)"
       id="g6">
      <line
         stroke-linejoin="round"
         stroke-linecap="round"
         stroke-width="0.1"
         stroke="currentColor"
         x1="0.050000001"
         y1="0"
         x2="14.9"
         y2="0"
         id="line4" />
    </g>
    <g
       transform="matrix(1.7572987,0,0,1.7572987,182.91852,168.07808)"
       id="g10">
      <line
         stroke-linejoin="round"
         stroke-linecap="round"
         stroke-width="0.1"
         stroke="currentColor"
         x1="0.050000001"
         y1="0"
         x2="14.9"
         y2="0"
         id="line8" />
    </g>
    <g
       transform="matrix(1.7572987,0,0,1.7572987,182.91852,166.32078)"
       id="g14">
      <line
         stroke-linejoin="round"
         stroke-linecap="round"
         stroke-width="0.1"
         stroke="currentColor"
         x1="0.050000001"
         y1="0"
         x2="14.9"
         y2="0"
         id="line12" />
    </g>
    <g
       transform="matrix(1.7572987,0,0,1.7572987,182.91852,164.56348)"
       id="g18">
      <line
         stroke-linejoin="round"
         stroke-linecap="round"
         stroke-width="0.1"
         stroke="currentColor"
         x1="0.050000001"
         y1="0"
         x2="14.9"
         y2="0"
         id="line16" />
    </g>
    <g
       transform="matrix(1.7572987,0,0,1.7572987,182.91852,162.80618)"
       id="g22">
      <line
         stroke-linejoin="round"
         stroke-linecap="round"
         stroke-width="0.1"
         stroke="currentColor"
         x1="0.050000001"
         y1="0"
         x2="14.9"
         y2="0"
         id="line20" />
    </g>
    <g
       transform="matrix(1.7572987,0,0,1.7572987,208.85625,166.32078)"
       id="g26">
      <rect
         x="0"
         y="-2"
         width="0.19"
         height="4"
         ry="0.0000"
         fill="currentColor"
         id="rect24" />
    </g>
    <g
       transform="matrix(1.7572987,0,0,1.7572987,184.32436,168.07808)"
       id="g30">
      <path
         transform="scale(0.004,-0.004)"
         d="m 376,262 c 4,0 9,1 13,1 155,0 256,-128 256,-261 0,-76 -33,-154 -107,-210 -22,-17 -47,-28 -73,-36 3,-35 5,-70 5,-105 0,-19 -1,-39 -2,-58 -7,-120 -90,-228 -208,-228 -108,0 -195,88 -195,197 0,58 53,103 112,103 54,0 95,-47 95,-103 0,-52 -43,-95 -95,-95 -11,0 -21,2 -31,6 26,-39 68,-65 117,-65 96,0 157,92 163,191 1,18 2,37 2,55 0,31 -1,61 -4,92 -29,-5 -58,-8 -89,-8 -188,0 -333,172 -333,374 0,177 131,306 248,441 -19,62 -37,126 -45,191 -6,52 -7,103 -7,155 0,115 55,224 149,292 3,2 7,3 10,3 4,0 7,0 10,-3 71,-84 133,-245 133,-358 0,-143 -86,-255 -180,-364 21,-68 39,-138 56,-207 z m 85,-465 c 68,24 113,95 113,164 0,90 -66,179 -173,190 24,-116 46,-231 60,-354 z M 74,28 c 0,-135 129,-247 264,-247 28,0 55,2 82,6 C 406,-86 383,32 357,151 278,143 233,90 233,32 c 0,-44 25,-91 81,-123 5,-5 7,-10 7,-15 0,-11 -10,-22 -22,-22 -3,0 -6,1 -9,2 -80,43 -117,115 -117,185 0,88 58,174 160,197 -14,58 -29,117 -46,175 C 180,310 74,188 74,28 Z M 408,1045 C 309,997 246,896 246,786 c 0,-74 18,-133 36,-194 80,97 146,198 146,324 0,55 -4,79 -20,129 z"
         fill="currentColor"
         id="path28" />
    </g>
  </g>
</svg>
